{
  "accessors": [
    {
      "bufferView": 2,
      "componentType": 5126,
      "count": 65532,
      "max": [
        39.78327560424805,
        22.02974510192871,
        56.778038024902344
      ],
      "min": [
        -29.789669036865234,
        -10.1124849319458,
        -14.200139999389648
      ],
      "type": "VEC3"
    },
    {
      "bufferView": 2,
      "byteOffset": 786384,
      "componentType": 5126,
      "count": 65532,
      "max": [
        1.0,
        1.0,
        1.0
      ],
      "min": [
        -1.0,
        -1.0,
        -1.0
      ],
      "type": "VEC3"
    },
    {
      "bufferView": 1,
      "componentType": 5126,
      "count": 65532,
      "max": [
        1.0000001192092896,
        1.0
      ],
      "min": [
        0.0,
        0.0
      ],
      "type": "VEC2"
    },
    {
      "bufferView": 1,
      "byteOffset": 524256,
      "componentType": 5126,
      "count": 65532,
      "max": [
        348.7496337890625,
        177.94754028320313
      ],
      "min": [
        -114.7706298828125,
        -139.8065643310547
      ],
      "type": "VEC2"
    },
    {
      "bufferView": 0,
      "componentType": 5125,
      "count": 117252,
      "type": "SCALAR"
    },
    {
      "bufferView": 2,
      "byteOffset": 1572768,
      "componentType": 5126,
      "count": 16991,
      "max": [
        14.849067687988281,
        4.068735599517822,
        55.02887725830078
      ],
      "min": [
        -14.993635177612305,
        -0.625867486000061,
        24.080303192138672
      ],
      "type": "VEC3"
    },
    {
      "bufferView": 2,
      "byteOffset": 1776660,
      "componentType": 5126,
      "count": 16991,
      "max": [
        1.0,
        1.0,
        1.0
      ],
      "min": [
        -1.0,
        -1.0,
        -1.0
      ],
      "type": "VEC3"
    },
    {
      "bufferView": 1,
      "byteOffset": 1048512,
      "componentType": 5126,
      "count": 16991,
      "max": [
        1.0,
        0.9892094135284424
      ],
      "min": [
        0.5,
        0.0
      ],
      "type": "VEC2"
    },
    {
      "bufferView": 1,
      "byteOffset": 1184440,
      "componentType": 5126,
      "count": 16991,
      "max": [
        12.758817672729492,
        16.759891510009766
      ],
      "min": [
        -67.14640808105469,
        -103.84798431396484
      ],
      "type": "VEC2"
    },
    {
      "bufferView": 0,
      "byteOffset": 469008,
      "componentType": 5125,
      "count": 22812,
      "type": "SCALAR"
    },
    {
      "bufferView": 2,
      "byteOffset": 1980552,
      "componentType": 5126,
      "count": 592,
      "max": [
        12.587568283081055,
        2.232215166091919,
        35.22459411621094
      ],
      "min": [
        0.3998088836669922,
        1.0028772354125977,
        25.455184936523438
      ],
      "type": "VEC3"
    },
    {
      "bufferView": 2,
      "byteOffset": 1987656,
      "componentType": 5126,
      "count": 592,
      "max": [
        0.9993520975112915,
        1.0,
        0.999100387096405
      ],
      "min": [
        -0.9990859627723694,
        -1.0,
        -0.9988413453102112
      ],
      "type": "VEC3"
    },
    {
      "bufferView": 1,
      "byteOffset": 1320368,
      "componentType": 5126,
      "count": 592,
      "max": [
        0.23430192470550537,
        0.6802101135253906
      ],
      "min": [
        0.014197476208209991,
        0.3307095468044281
      ],
      "type": "VEC2"
    },
    {
      "bufferView": 1,
      "byteOffset": 1325104,
      "componentType": 5126,
      "count": 592,
      "max": [
        0.9900000095367432,
        0.937852144241333
      ],
      "min": [
        0.009999999776482582,
        0.009999999776482582
      ],
      "type": "VEC2"
    },
    {
      "bufferView": 0,
      "byteOffset": 560256,
      "componentType": 5125,
      "count": 828,
      "type": "SCALAR"
    },
    {
      "bufferView": 2,
      "byteOffset": 1994760,
      "componentType": 5126,
      "count": 670,
      "max": [
        14.288214683532715,
        1.8895833492279053,
        35.193336486816406
      ],
      "min": [
        0.43106698989868164,
        1.2979354858398438,
        25.969528198242188
      ],
      "type": "VEC3"
    },
    {
      "bufferView": 2,
      "byteOffset": 2002800,
      "componentType": 5126,
      "count": 670,
      "max": [
        0.9979307651519775,
        1.0,
        0.9999637007713318
      ],
      "min": [
        -0.9979307651519775,
        -1.0,
        -0.999963641166687
      ],
      "type": "VEC3"
    },
    {
      "bufferView": 1,
      "byteOffset": 1329840,
      "componentType": 5126,
      "count": 670,
      "max": [
        0.22605875134468079,
        0.33399683237075806
      ],
      "min": [
        0.008015096187591553,
        0.16378527879714966
      ],
      "type": "VEC2"
    },
    {
      "bufferView": 1,
      "byteOffset": 1335200,
      "componentType": 5126,
      "count": 670,
      "max": [
        0.9900000095367432,
        0.9900000095367432
      ],
      "min": [
        0.009999999776482582,
        0.009999999776482582
      ],
      "type": "VEC2"
    },
    {
      "bufferView": 0,
      "byteOffset": 563568,
      "componentType": 5125,
      "count": 972,
      "type": "SCALAR"
    },
    {
      "bufferView": 2,
      "byteOffset": 2010840,
      "componentType": 5126,
      "count": 2571,
      "max": [
        14.308795928955078,
        1.897820234298706,
        35.192405700683594
      ],
      "min": [
        0.43199777603149414,
        1.0172319412231445,
        25.96217918395996
      ],
      "type": "VEC3"
    },
    {
      "bufferView": 2,
      "byteOffset": 2041692,
      "componentType": 5126,
      "count": 2571,
      "max": [
        0.999700665473938,
        1.0,
        0.9999033808708191
      ],
      "min": [
        -0.9983365535736084,
        -1.0,
        -0.9999033808708191
      ],
      "type": "VEC3"
    },
    {
      "bufferView": 1,
      "byteOffset": 1340560,
      "componentType": 5126,
      "count": 2571,
      "max": [
        0.22605875134468079,
        0.33399683237075806
      ],
      "min": [
        0.008015096187591553,
        0.16378527879714966
      ],
      "type": "VEC2"
    },
    {
      "bufferView": 1,
      "byteOffset": 1361128,
      "componentType": 5126,
      "count": 2571,
      "max": [
        0.9900000095367432,
        0.9900000095367432
      ],
      "min": [
        0.009999999776482582,
        0.009999999776482582
      ],
      "type": "VEC2"
    },
    {
      "bufferView": 0,
      "byteOffset": 567456,
      "componentType": 5125,
      "count": 3072,
      "type": "SCALAR"
    },
    {
      "bufferView": 2,
      "byteOffset": 2072544,
      "componentType": 5126,
      "count": 92,
      "max": [
        -13.060155868530273,
        3.2118759155273438,
        17.374881744384766
      ],
      "min": [
        -26.34869384765625,
        1.455564260482788,
        4.119821071624756
      ],
      "type": "VEC3"
    },
    {
      "bufferView": 2,
      "byteOffset": 2073648,
      "componentType": 5126,
      "count": 92,
      "max": [
        0.9949988722801208,
        1.0,
        0.9958088994026184
      ],
      "min": [
        -0.9511717557907104,
        -1.0,
        -0.8921392560005188
      ],
      "type": "VEC3"
    },
    {
      "bufferView": 1,
      "byteOffset": 1381696,
      "componentType": 5126,
      "count": 92,
      "max": [
        1.0,
        1.0
      ],
      "min": [
        0.0,
        0.0
      ],
      "type": "VEC2"
    },
    {
      "bufferView": 1,
      "byteOffset": 1382432,
      "componentType": 5126,
      "count": 92,
      "max": [
        111.40470123291016,
        100.60602569580078
      ],
      "min": [
        -106.48519897460938,
        -106.42672729492188
      ],
      "type": "VEC2"
    },
    {
      "bufferView": 0,
      "byteOffset": 579744,
      "componentType": 5125,
      "count": 138,
      "type": "SCALAR"
    },
    {
      "bufferView": 2,
      "byteOffset": 2074752,
      "componentType": 5126,
      "count": 2352,
      "max": [
        11.96430778503418,
        2.246739387512207,
        35.76964569091797
      ],
      "min": [
        -0.3229241371154785,
        1.0260652303695679,
        23.609954833984375
      ],
      "type": "VEC3"
    },
    {
      "bufferView": 2,
      "byteOffset": 2102976,
      "componentType": 5126,
      "count": 2352,
      "max": [
        1.0,
        1.0,
        1.0
      ],
      "min": [
        -1.0,
        -1.0,
        -1.0
      ],
      "type": "VEC3"
    },
    {
      "bufferView": 1,
      "byteOffset": 1383168,
      "componentType": 5126,
      "count": 2352,
      "max": [
        1.0,
        1.0
      ],
      "min": [
        0.0,
        0.0
      ],
      "type": "VEC2"
    },
    {
      "bufferView": 1,
      "byteOffset": 1401984,
      "componentType": 5126,
      "count": 2352,
      "max": [
        6.851655960083008,
        5.93621826171875
      ],
      "min": [
        -29.695863723754883,
        -0.1502380520105362
      ],
      "type": "VEC2"
    },
    {
      "bufferView": 0,
      "byteOffset": 580296,
      "componentType": 5125,
      "count": 3528,
      "type": "SCALAR"
    },
    {
      "bufferView": 2,
      "byteOffset": 2131200,
      "componentType": 5126,
      "count": 250,
      "max": [
        10.788089752197266,
        1.7859152555465698,
        34.42343521118164
      ],
      "min": [
        0.6350269317626953,
        1.045632243156433,
        26.96336555480957
      ],
      "type": "VEC3"
    },
    {
      "bufferView": 2,
      "byteOffset": 2134200,
      "componentType": 5126,
      "count": 250,
      "max": [
        0.9974297881126404,
        1.0,
        0.9968159198760986
      ],
      "min": [
        -0.9974249601364136,
        -1.0,
        -0.9968159198760986
      ],
      "type": "VEC3"
    },
    {
      "bufferView": 1,
      "byteOffset": 1420800,
      "componentType": 5126,
      "count": 250,
      "max": [
        0.22605875134468079,
        0.33399683237075806
      ],
      "min": [
        0.008015096187591553,
        0.16378527879714966
      ],
      "type": "VEC2"
    },
    {
      "bufferView": 1,
      "byteOffset": 1422800,
      "componentType": 5126,
      "count": 250,
      "max": [
        0.9900000095367432,
        0.9821587800979614
      ],
      "min": [
        0.009999999776482582,
        0.009999999776482582
      ],
      "type": "VEC2"
    },
    {
      "bufferView": 0,
      "byteOffset": 594408,
      "componentType": 5125,
      "count": 360,
      "type": "SCALAR"
    },
    {
      "bufferView": 2,
      "byteOffset": 2137200,
      "componentType": 5126,
      "count": 12344,
      "max": [
        16.594820022583008,
        3.5664291381835938,
        32.880855560302734
      ],
      "min": [
        -10.355541229248047,
        1.0195977687835693,
        18.32099151611328
      ],
      "type": "VEC3"
    },
    {
      "bufferView": 2,
      "byteOffset": 2285328,
      "componentType": 5126,
      "count": 12344,
      "max": [
        1.0,
        1.0,
        1.0
      ],
      "min": [
        -1.0,
        -1.0,
        -0.999097466468811
      ],
      "type": "VEC3"
    },
    {
      "bufferView": 1,
      "byteOffset": 1424800,
      "componentType": 5126,
      "count": 12344,
      "max": [
        1.0,
        1.0
      ],
      "min": [
        -0.004696422256529331,
        -0.07300801575183868
      ],
      "type": "VEC2"
    },
    {
      "bufferView": 1,
      "byteOffset": 1523552,
      "componentType": 5126,
      "count": 12344,
      "max": [
        46.553070068359375,
        36.044677734375
      ],
      "min": [
        -38.831626892089844,
        -47.75838851928711
      ],
      "type": "VEC2"
    },
    {
      "bufferView": 0,
      "byteOffset": 595848,
      "componentType": 5125,
      "count": 12744,
      "type": "SCALAR"
    },
    {
      "bufferView": 2,
      "byteOffset": 2433456,
      "componentType": 5126,
      "count": 30,
      "max": [
        1.8546688556671143,
        0.9272906184196472,
        40.5129508972168
      ],
      "min": [
        -6.104375839233398,
        -0.03593766689300537,
        15.888373374938965
      ],
      "type": "VEC3"
    },
    {
      "bufferView": 2,
      "byteOffset": 2433816,
      "componentType": 5126,
      "count": 30,
      "max": [
        0.28711068630218506,
        1.0,
        0.780299723148346
      ],
      "min": [
        -1.1530306487372854e-08,
        0.5680601596832275,
        -1.642238629528947e-07
      ],
      "type": "VEC3"
    },
    {
      "bufferView": 1,
      "byteOffset": 1622304,
      "componentType": 5126,
      "count": 30,
      "max": [
        1.0,
        1.0
      ],
      "min": [
        0.0,
        0.0
      ],
      "type": "VEC2"
    },
    {
      "bufferView": 1,
      "byteOffset": 1622544,
      "componentType": 5126,
      "count": 30,
      "max": [
        1.7295455932617188,
        6.941582679748535
      ],
      "min": [
        -3.705475330352783,
        -9.873888969421387
      ],
      "type": "VEC2"
    },
    {
      "bufferView": 0,
      "byteOffset": 646824,
      "componentType": 5125,
      "count": 36,
      "type": "SCALAR"
    },
    {
      "bufferView": 2,
      "byteOffset": 2434176,
      "componentType": 5126,
      "count": 576,
      "max": [
        54.41608428955078,
        0.9036350250244141,
        80.05631256103516
      ],
      "min": [
        -47.11016082763672,
        -66.8173599243164,
        -23.138572692871094
      ],
      "type": "VEC3"
    },
    {
      "bufferView": 2,
      "byteOffset": 2441088,
      "componentType": 5126,
      "count": 576,
      "max": [
        0.9368190169334412,
        0.9997850060462952,
        0.981745719909668
      ],
      "min": [
        -0.9924755692481995,
        -0.9994779825210571,
        -0.9803696274757385
      ],
      "type": "VEC3"
    },
    {
      "bufferView": 1,
      "byteOffset": 1622784,
      "componentType": 5126,
      "count": 576,
      "max": [
        1.0833333730697632,
        1.0
      ],
      "min": [
        0.007596105337142944,
        0.0
      ],
      "type": "VEC2"
    },
    {
      "bufferView": 1,
      "byteOffset": 1627392,
      "componentType": 5126,
      "count": 576,
      "max": [
        52.228797912597656,
        50.814369201660156
      ],
      "min": [
        -49.29744338989258,
        -52.380516052246094
      ],
      "type": "VEC2"
    },
    {
      "bufferView": 0,
      "byteOffset": 646968,
      "componentType": 5125,
      "count": 576,
      "type": "SCALAR"
    }
  ],
  "asset": {
    "extras": {
      "author": "jessica.novita (https://sketchfab.com/jessica.novita)",
      "license": "CC-BY-4.0 (http://creativecommons.org/licenses/by/4.0/)",
      "source": "https://sketchfab.com/3d-models/medieval-asian-harbor-6f8d16435dc14ecab2b235b962c63be2",
      "title": "Medieval Asian Harbor"
    },
    "generator": "Sketchfab-12.68.0",
    "version": "2.0"
  },
  "bufferViews": [
    {
      "buffer": 0,
      "byteLength": 649272,
      "name": "floatBufferViews",
      "target": 34963
    },
    {
      "buffer": 0,
      "byteLength": 1632000,
      "byteOffset": 649272,
      "byteStride": 8,
      "name": "floatBufferViews",
      "target": 34962
    },
    {
      "buffer": 0,
      "byteLength": 2448000,
      "byteOffset": 2281272,
      "byteStride": 12,
      "name": "floatBufferViews",
      "target": 34962
    }
  ],
  "buffers": [
    {
      "byteLength": 4729272,
      "uri": "scene.bin"
    }
  ],
  "images": [
    {
      "uri": "textures/shared_texture_baseColor.jpeg"
    }
  ],
  "materials": [
    {
      "doubleSided": true,
      "name": "shared_texture",
      "pbrMetallicRoughness": {
        "baseColorTexture": {
          "index": 0
        },
        "metallicFactor": 0.0,
        "roughnessFactor": 0.8929713596
      }
    },
    {
      "doubleSided": true,
      "name": "dinding",
      "pbrMetallicRoughness": {
        "baseColorFactor": [
          0.866667,
          0.866667,
          0.866667,
          1.0
        ],
        "metallicFactor": 0.0,
        "roughnessFactor": 0.8929713596
      }
    },
    {
      "doubleSided": true,
      "name": "jendela",
      "pbrMetallicRoughness": {
        "baseColorFactor": [
          0.105882,
          0.105882,
          0.105882,
          1.0
        ],
        "metallicFactor": 0.0,
        "roughnessFactor": 0.8929713596
      }
    },
    {
      "doubleSided": true,
      "name": "kusen_pintu",
      "pbrMetallicRoughness": {
        "metallicFactor": 0.0,
        "roughnessFactor": 0.8929713596
      }
    },
    {
      "doubleSided": true,
      "name": "Land",
      "pbrMetallicRoughness": {
        "baseColorFactor": [
          0.227451,
          0.172549,
          0.145098,
          1.0
        ],
        "metallicFactor": 0.0,
        "roughnessFactor": 0.8929713596
      }
    },
    {
      "doubleSided": true,
      "name": "tiang_merah",
      "pbrMetallicRoughness": {
        "baseColorFactor": [
          0.596078,
          0.0666667,
          0.0666667,
          1.0
        ],
        "metallicFactor": 0.0,
        "roughnessFactor": 0.8929713596
      }
    },
    {
      "doubleSided": true,
      "name": "door",
      "pbrMetallicRoughness": {
        "baseColorFactor": [
          0.298039,
          0.231373,
          0.196078,
          1.0
        ],
        "metallicFactor": 0.0,
        "roughnessFactor": 0.8929713596
      }
    },
    {
      "doubleSided": true,
      "name": "01_-_Default",
      "pbrMetallicRoughness": {
        "baseColorTexture": {
          "index": 0
        },
        "metallicFactor": 0.0,
        "roughnessFactor": 0.8929713596
      }
    },
    {
      "doubleSided": true,
      "name": "water",
      "pbrMetallicRoughness": {
        "baseColorFactor": [
          0.164706,
          0.701961,
          0.631373,
          1.0
        ],
        "metallicFactor": 0.0,
        "roughnessFactor": 0.8929713596
      }
    },
    {
      "doubleSided": true,
      "name": "water_0",
      "pbrMetallicRoughness": {
        "baseColorFactor": [
          0.164706,
          0.701961,
          0.631373,
          1.0
        ],
        "metallicFactor": 0.0,
        "roughnessFactor": 0.8929713596
      }
    }
  ],
  "meshes": [
    {
      "name": "Plane008_shared texture_0",
      "primitives": [
        {
          "attributes": {
            "NORMAL": 1,
            "POSITION": 0,
            "TEXCOORD_0": 2,
            "TEXCOORD_1": 3
          },
          "indices": 4,
          "material": 0,
          "mode": 4
        }
      ]
    },
    {
      "name": "Plane008_shared texture_0",
      "primitives": [
        {
          "attributes": {
            "NORMAL": 6,
            "POSITION": 5,
            "TEXCOORD_0": 7,
            "TEXCOORD_1": 8
          },
          "indices": 9,
          "material": 0,
          "mode": 4
        }
      ]
    },
    {
      "name": "Plane008_dinding_0",
      "primitives": [
        {
          "attributes": {
            "NORMAL": 11,
            "POSITION": 10,
            "TEXCOORD_0": 12,
            "TEXCOORD_1": 13
          },
          "indices": 14,
          "material": 1,
          "mode": 4
        }
      ]
    },
    {
      "name": "Plane008_jendela_0",
      "primitives": [
        {
          "attributes": {
            "NORMAL": 16,
            "POSITION": 15,
            "TEXCOORD_0": 17,
            "TEXCOORD_1": 18
          },
          "indices": 19,
          "material": 2,
          "mode": 4
        }
      ]
    },
    {
      "name": "Plane008_kusen pintu_0",
      "primitives": [
        {
          "attributes": {
            "NORMAL": 21,
            "POSITION": 20,
            "TEXCOORD_0": 22,
            "TEXCOORD_1": 23
          },
          "indices": 24,
          "material": 3,
          "mode": 4
        }
      ]
    },
    {
      "name": "Plane008_Land_0",
      "primitives": [
        {
          "attributes": {
            "NORMAL": 26,
            "POSITION": 25,
            "TEXCOORD_0": 27,
            "TEXCOORD_1": 28
          },
          "indices": 29,
          "material": 4,
          "mode": 4
        }
      ]
    },
    {
      "name": "Plane008_tiang merah_0",
      "primitives": [
        {
          "attributes": {
            "NORMAL": 31,
            "POSITION": 30,
            "TEXCOORD_0": 32,
            "TEXCOORD_1": 33
          },
          "indices": 34,
          "material": 5,
          "mode": 4
        }
      ]
    },
    {
      "name": "Plane008_door_0",
      "primitives": [
        {
          "attributes": {
            "NORMAL": 36,
            "POSITION": 35,
            "TEXCOORD_0": 37,
            "TEXCOORD_1": 38
          },
          "indices": 39,
          "material": 6,
          "mode": 4
        }
      ]
    },
    {
      "name": "Plane008_01 - Default_0",
      "primitives": [
        {
          "attributes": {
            "NORMAL": 41,
            "POSITION": 40,
            "TEXCOORD_0": 42,
            "TEXCOORD_1": 43
          },
          "indices": 44,
          "material": 7,
          "mode": 4
        }
      ]
    },
    {
      "name": "Plane008_water_0",
      "primitives": [
        {
          "attributes": {
            "NORMAL": 46,
            "POSITION": 45,
            "TEXCOORD_0": 47,
            "TEXCOORD_1": 48
          },
          "indices": 49,
          "material": 8,
          "mode": 4
        }
      ]
    },
    {
      "name": "Plane008_water_0",
      "primitives": [
        {
          "attributes": {
            "NORMAL": 51,
            "POSITION": 50,
            "TEXCOORD_0": 52,
            "TEXCOORD_1": 53
          },
          "indices": 54,
          "material": 9,
          "mode": 4
        }
      ]
    }
  ],
  "nodes": [
    {
      "children": [
        1
      ],
      "matrix": [
        0.013628222979605198,
        0.0,
        0.0,
        0.0,
        0.0,
        3.026073387336669e-18,
        -0.013628222979605198,
        0.0,
        0.0,
        0.013628222979605198,
        3.026073387336669e-18,
        0.0,
        0.0,
        0.0,
        0.0,
        1.0
      ],
      "name": "Sketchfab_model"
    },
    {
      "children": [
        2
      ],
      "matrix": [
        1.0,
        0.0,
        0.0,
        0.0,
        0.0,
        0.0,
        1.0,
        0.0,
        0.0,
        -1.0,
        0.0,
        0.0,
        0.0,
        0.0,
        0.0,
        1.0
      ],
      "name": "beb5bdeec04746e187b9d902dcc55eb0.fbx"
    },
    {
      "children": [
        3
      ],
      "name": "RootNode"
    },
    {
      "children": [
        4,
        5,
        6,
        7,
        8,
        9,
        10,
        11,
        12,
        13,
        14
      ],
      "matrix": [
        1.0,
        0.0,
        0.0,
        0.0,
        0.0,
        0.9999999999999867,
        1.6292068494294582e-07,
        0.0,
        0.0,
        -1.6292068494294582e-07,
        0.9999999999999867,
        0.0,
        6.88746452331543,
        -0.9272842407226563,
        -86.35423278808594,
        1.0
      ],
      "name": "Plane008"
    },
    {
      "mesh": 0,
      "name": "Plane008_shared texture_0"
    },
    {
      "mesh": 1,
      "name": "Plane008_shared texture_0"
    },
    {
      "mesh": 2,
      "name": "Plane008_dinding_0"
    },
    {
      "mesh": 3,
      "name": "Plane008_jendela_0"
    },
    {
      "mesh": 4,
      "name": "Plane008_kusen pintu_0"
    },
    {
      "mesh": 5,
      "name": "Plane008_Land_0"
    },
    {
      "mesh": 6,
      "name": "Plane008_tiang merah_0"
    },
    {
      "mesh": 7,
      "name": "Plane008_door_0"
    },
    {
      "mesh": 8,
      "name": "Plane008_01 - Default_0"
    },
    {
      "mesh": 9,
      "name": "Plane008_water_0"
    },
    {
      "mesh": 10,
      "name": "Plane008_water_0"
    }
  ],
  "samplers": [
    {
      "magFilter": 9729,
      "minFilter": 9987,
      "wrapS": 10497,
      "wrapT": 10497
    }
  ],
  "scene": 0,
  "scenes": [
    {
      "name": "Sketchfab_Scene",
      "nodes": [
        0
      ]
    }
  ],
  "textures": [
    {
      "sampler": 0,
      "source": 0
    }
  ]
}
