{
  "accessors": [
    {
      "bufferView": 2,
      "componentType": 5126,
      "count": 51349,
      "max": [
        26.64303970336914,
        43.715301513671875,
        168.3920440673828
      ],
      "min": [
        -27.999631881713867,
        -36.04404830932617,
        -0.1524033099412918
      ],
      "type": "VEC3"
    },
    {
      "bufferView": 2,
      "byteOffset": 616188,
      "componentType": 5126,
      "count": 51349,
      "max": [
        0.9999987483024597,
        0.999993622303009,
        0.9998407363891602
      ],
      "min": [
        -0.9999914169311523,
        -0.9999780058860779,
        -0.9999998211860657
      ],
      "type": "VEC3"
    },
    {
      "bufferView": 3,
      "componentType": 5126,
      "count": 51349,
      "max": [
        0.9999948143959045,
        0.9999853372573853,
        0.9998573660850525,
        1.0
      ],
      "min": [
        -0.9999998211860657,
        -0.9999876022338867,
        -0.9999927282333374,
        -1.0
      ],
      "type": "VEC4"
    },
    {
      "bufferView": 1,
      "componentType": 5126,
      "count": 51349,
      "max": [
        0.9954400062561035,
        0.9980400204658508
      ],
      "min": [
        0.0019499999471008778,
        0.0019500255584716797
      ],
      "type": "VEC2"
    },
    {
      "bufferView": 0,
      "componentType": 5125,
      "count": 299982,
      "type": "SCALAR"
    }
  ],
  "asset": {
    "extras": {
      "author": "deep3dstudio (https://sketchfab.com/deep3dstudio)",
      "license": "CC-BY-4.0 (http://creativecommons.org/licenses/by/4.0/)",
      "source": "https://sketchfab.com/3d-models/free-download-athletic-african-man-walking-223-f9a8e3b108f04e998815593f78f163b1",
      "title": "FREE DOWNLOAD Athletic African man walking 223"
    },
    "generator": "Sketchfab-12.66.0",
    "version": "2.0"
  },
  "bufferViews": [
    {
      "buffer": 0,
      "byteLength": 1199928,
      "name": "floatBufferViews",
      "target": 34963
    },
    {
      "buffer": 0,
      "byteLength": 410792,
      "byteOffset": 1199928,
      "byteStride": 8,
      "name": "floatBufferViews",
      "target": 34962
    },
    {
      "buffer": 0,
      "byteLength": 1232376,
      "byteOffset": 1610720,
      "byteStride": 12,
      "name": "floatBufferViews",
      "target": 34962
    },
    {
      "buffer": 0,
      "byteLength": 821584,
      "byteOffset": 2843096,
      "byteStride": 16,
      "name": "floatBufferViews",
      "target": 34962
    }
  ],
  "buffers": [
    {
      "byteLength": 3664680,
      "uri": "scene.bin"
    }
  ],
  "images": [
    {
      "uri": "textures/default_baseColor.jpeg"
    },
    {
      "uri": "textures/default_normal.png"
    }
  ],
  "materials": [
    {
      "doubleSided": true,
      "name": "default",
      "normalTexture": {
        "index": 1
      },
      "pbrMetallicRoughness": {
        "baseColorTexture": {
          "index": 0
        },
        "metallicFactor": 0.0,
        "roughnessFactor": 0.6
      }
    }
  ],
  "meshes": [
    {
      "name": "Object_0",
      "primitives": [
        {
          "attributes": {
            "NORMAL": 1,
            "POSITION": 0,
            "TANGENT": 2,
            "TEXCOORD_0": 3
          },
          "indices": 4,
          "material": 0,
          "mode": 4
        }
      ]
    }
  ],
  "nodes": [
    {
      "children": [
        1
      ],
      "matrix": [
        1.0,
        0.0,
        0.0,
        0.0,
        0.0,
        2.220446049250313e-16,
        -1.0,
        0.0,
        0.0,
        1.0,
        2.220446049250313e-16,
        0.0,
        0.0,
        0.0,
        0.0,
        1.0
      ],
      "name": "Sketchfab_model"
    },
    {
      "children": [
        2
      ],
      "name": "031M_04SET_01SHOT.obj.cleaner.materialmerger.gles"
    },
    {
      "mesh": 0,
      "name": "Object_2"
    }
  ],
  "samplers": [
    {
      "magFilter": 9729,
      "minFilter": 9987,
      "wrapS": 10497,
      "wrapT": 10497
    }
  ],
  "scene": 0,
  "scenes": [
    {
      "name": "Sketchfab_Scene",
      "nodes": [
        0
      ]
    }
  ],
  "textures": [
    {
      "sampler": 0,
      "source": 0
    },
    {
      "sampler": 0,
      "source": 1
    }
  ]
}
